<svg xmlns="http://www.w3.org/2000/svg" width="234" height="64" viewBox="0 0 234 64">
<!-- litman mark. One 64x64 grid, one gesture: the right page lifts off
     the spine and leans 4 degrees. The i's dot drifts the same way. -->
  <g transform="translate(32 33) scale(0.94) translate(-32 -32)">
    <path d="M32 21 C 24 9 10 9 5 17 C 1.5 23 3.5 40 8 47 C 15 42 26 44 32 52 Z" fill="#f0f0f2" transform="translate(-1 0)"/>
    <path d="M32 21 C 40 9 54 9 59 17 C 62.5 23 60.5 40 56 47 C 49 42 38 44 32 52 Z" fill="#0a84ff" transform="translate(2.5 -4) rotate(4 32 36)"/>
  </g>
  <g transform="translate(80.5 0)">
    <g fill="none" stroke="#f0f0f2" stroke-width="7" stroke-linecap="round" stroke-linejoin="round">
      <path d="M6 12.5 V47.5"/>
      <path d="M19 28.5 V47.5"/>
      <path d="M36 17 V43 C36 47.5 39.5 49 43 47.2"/>
      <path d="M31 28.5 H42"/>
      <path d="M55 47.5 V32.5 C55 26.5 72 26.5 72 32.5 V47.5"/>
      <path d="M72 32.5 C72 26.5 89 26.5 89 32.5 V47.5"/>
      <circle cx="111.5" cy="38" r="9.5"/>
      <path d="M121 28.5 V47.5"/>
      <path d="M130 47.5 V32.5 C130 26.5 147 26.5 147 32.5 V47.5"/>
    </g>
    <circle cx="21.2" cy="17.5" r="4.2" fill="#0a84ff"/>
  </g>
</svg>
