<svg xmlns="http://www.w3.org/2000/svg" width="173.25" height="64" viewBox="0 0 173.25 64">
<!-- litman wordmark. Nunito 700, outlines, sheared 1 degree (skewX,
     tan = 0.017514, pivoting on the baseline). It leans the same direction the
     right page lifts off the spine in mark.svg, which leans 4 degrees — same
     direction, not the same angle. Change one and re-judge the other. ADR-023. -->
  <g transform="translate(-20.135 -14.374) scale(0.342723)">
    <g transform="matrix(1,0,-0.017514,1,3.34085,0)">
      <path d="M70.035,189.396c-3.809,0 -6.685,-1.052 -8.63,-3.157c-1.944,-2.105 -2.819,-5.012 -2.625,-8.72l4.326,-82.541c0.205,-3.909 1.362,-6.866 3.472,-8.871c2.11,-2.005 5.069,-3.007 8.878,-3.007c3.709,0 6.513,1.002 8.412,3.007c1.9,2.005 2.747,4.961 2.542,8.871l-3.916,74.723l40.293,0c3.207,0 5.644,0.852 7.308,2.556c1.665,1.704 2.416,4.11 2.253,7.217c-0.168,3.207 -1.174,5.663 -3.017,7.367c-1.843,1.704 -4.369,2.556 -7.576,2.556l-51.72,0Z" fill="#f0f0f2" transform="translate(0.000 0)"/>
      <path d="M166.496,190.599c-3.709,0 -6.484,-1.077 -8.325,-3.232c-1.842,-2.155 -2.66,-5.187 -2.455,-9.096l2.695,-51.419c0.21,-4.009 1.349,-7.091 3.416,-9.246c2.067,-2.155 4.955,-3.232 8.664,-3.232c3.608,0 6.333,1.077 8.175,3.232c1.842,2.155 2.657,5.237 2.447,9.246l-2.695,51.419c-0.205,3.909 -1.316,6.941 -3.333,9.096c-2.017,2.155 -4.88,3.232 -8.589,3.232Z" fill="#f0f0f2" transform="translate(-7.250 0)"/>
      <path d="M171.137,79.341c-4.21,0 -7.391,-0.977 -9.544,-2.932c-2.153,-1.955 -3.135,-4.736 -2.946,-8.344c0.194,-3.709 1.47,-6.54 3.828,-8.495c2.358,-1.955 5.641,-2.932 9.851,-2.932c4.21,0 7.366,0.977 9.469,2.932c2.103,1.955 3.057,4.786 2.862,8.495c-0.189,3.608 -1.437,6.39 -3.745,8.344c-2.308,1.955 -5.566,2.932 -9.776,2.932Z" fill="#0a84ff" transform="translate(-6.770 13.64)"/>
      <path d="M244.352,191.05c-6.916,0 -12.644,-1.153 -17.184,-3.458c-4.54,-2.305 -7.822,-5.663 -9.846,-10.073c-2.024,-4.41 -2.86,-9.973 -2.508,-16.689l1.481,-28.265l-6.315,0c-2.806,0 -4.947,-0.752 -6.422,-2.255c-1.475,-1.503 -2.144,-3.558 -2.007,-6.164c0.147,-2.806 1.036,-4.936 2.665,-6.39c1.63,-1.453 3.848,-2.18 6.654,-2.18l6.315,0l0.599,-11.426c0.2,-3.809 1.353,-6.69 3.46,-8.645c2.107,-1.955 4.965,-2.932 8.573,-2.932c3.709,0 6.464,0.977 8.266,2.932c1.802,1.955 2.603,4.836 2.404,8.645l-0.599,11.426l14.283,0c2.806,0 4.923,0.727 6.351,2.18c1.427,1.453 2.067,3.583 1.92,6.39c-0.137,2.606 -0.996,4.661 -2.578,6.164c-1.582,1.503 -3.777,2.255 -6.583,2.255l-14.283,0l-1.434,27.363c-0.221,4.21 0.591,7.367 2.435,9.472c1.844,2.105 4.921,3.157 9.231,3.157c1.503,0 2.915,-0.15 4.233,-0.451c1.319,-0.301 2.532,-0.501 3.64,-0.601c1.409,-0.1 2.539,0.326 3.391,1.278c0.852,0.952 1.194,3.032 1.026,6.239c-0.126,2.406 -0.637,4.51 -1.534,6.315c-0.896,1.804 -2.368,3.107 -4.415,3.909c-1.329,0.501 -3.131,0.927 -5.404,1.278c-2.274,0.351 -4.212,0.526 -5.816,0.526Z" fill="#f0f0f2" transform="translate(-14.500 0)"/>
      <path d="M293.381,190.749c-3.709,0 -6.488,-1.002 -8.337,-3.007c-1.849,-2.005 -2.677,-4.861 -2.483,-8.57l2.797,-53.374c0.194,-3.709 1.32,-6.54 3.377,-8.495c2.057,-1.955 4.839,-2.932 8.348,-2.932c3.608,0 6.314,0.977 8.115,2.932c1.802,1.955 2.606,4.786 2.411,8.495l-0.504,9.622l-1.339,-6.014c2.246,-4.611 5.548,-8.319 9.905,-11.126c4.357,-2.806 9.392,-4.21 15.105,-4.21c5.713,0 10.403,1.353 14.07,4.059c3.667,2.706 6.155,6.866 7.465,12.479l-2.105,0c2.473,-5.112 6.067,-9.146 10.783,-12.103c4.716,-2.957 10.03,-4.435 15.944,-4.435c5.713,0 10.34,1.128 13.88,3.383c3.54,2.255 6.093,5.663 7.658,10.224c1.565,4.561 2.164,10.349 1.796,17.365l-1.789,34.129c-0.194,3.709 -1.321,6.565 -3.381,8.57c-2.06,2.005 -4.894,3.007 -8.502,3.007c-3.709,0 -6.488,-1.002 -8.337,-3.007c-1.849,-2.005 -2.677,-4.861 -2.483,-8.57l1.749,-33.377c0.257,-4.911 -0.332,-8.495 -1.767,-10.75c-1.435,-2.255 -4.007,-3.383 -7.716,-3.383c-4.31,-0 -7.747,1.503 -10.31,4.51c-2.563,3.007 -3.989,7.267 -4.278,12.78l-1.584,30.22c-0.194,3.709 -1.321,6.565 -3.381,8.57c-2.06,2.005 -4.894,3.007 -8.502,3.007c-3.608,0 -6.362,-1.002 -8.262,-3.007c-1.9,-2.005 -2.752,-4.861 -2.558,-8.57l1.749,-33.377c0.257,-4.911 -0.332,-8.495 -1.767,-10.75c-1.435,-2.255 -4.007,-3.383 -7.716,-3.383c-4.31,-0 -7.747,1.503 -10.31,4.51c-2.563,3.007 -3.989,7.267 -4.278,12.78l-1.584,30.22c-0.404,7.718 -4.365,11.577 -11.883,11.577Z" fill="#f0f0f2" transform="translate(-21.750 0)"/>
      <path d="M453.035,191.05c-5.413,0 -10.219,-1.052 -14.418,-3.157c-4.2,-2.105 -7.408,-4.961 -9.624,-8.57c-2.216,-3.608 -3.207,-7.668 -2.97,-12.178c0.284,-5.413 1.911,-9.697 4.883,-12.855c2.972,-3.157 7.651,-5.413 14.036,-6.766c6.386,-1.353 14.79,-2.03 25.214,-2.03l7.968,0l-0.615,11.727l-7.818,0c-5.112,0 -9.261,0.276 -12.447,0.827c-3.186,0.551 -5.49,1.478 -6.911,2.781c-1.421,1.303 -2.193,3.107 -2.313,5.413c-0.147,2.806 0.709,5.112 2.569,6.916c1.86,1.804 4.644,2.706 8.353,2.706c2.907,0 5.523,-0.677 7.849,-2.03c2.326,-1.353 4.202,-3.207 5.629,-5.563c1.426,-2.355 2.218,-5.037 2.376,-8.044l0.906,-17.29c0.231,-4.41 -0.607,-7.542 -2.514,-9.397c-1.907,-1.854 -5.267,-2.781 -10.078,-2.781c-2.706,0 -5.655,0.326 -8.847,0.977c-3.191,0.652 -6.731,1.729 -10.619,3.232c-2.258,1.002 -4.224,1.228 -5.899,0.677c-1.675,-0.551 -2.926,-1.554 -3.751,-3.007c-0.826,-1.453 -1.193,-3.057 -1.101,-4.811c0.092,-1.754 0.682,-3.458 1.771,-5.112c1.089,-1.654 2.807,-2.882 5.155,-3.684c4.811,-1.904 9.314,-3.207 13.511,-3.909c4.196,-0.702 8.049,-1.052 11.557,-1.052c7.718,0 13.998,1.128 18.842,3.383c4.843,2.255 8.396,5.713 10.657,10.374c2.262,4.661 3.201,10.65 2.817,17.967l-1.749,33.377c-0.194,3.709 -1.246,6.565 -3.155,8.57c-1.909,2.005 -4.568,3.007 -7.976,3.007c-3.408,0 -5.986,-1.002 -7.736,-3.007c-1.749,-2.005 -2.527,-4.861 -2.332,-8.57l0.292,-5.563l1.005,0.902c-0.78,3.408 -2.212,6.34 -4.295,8.795c-2.083,2.456 -4.664,4.36 -7.742,5.713c-3.078,1.353 -6.571,2.03 -10.48,2.03Z" fill="#f0f0f2" transform="translate(-29.000 0)"/>
      <path d="M536.043,190.749c-3.709,0 -6.488,-1.002 -8.337,-3.007c-1.849,-2.005 -2.677,-4.861 -2.483,-8.57l2.797,-53.374c0.194,-3.709 1.32,-6.54 3.377,-8.495c2.057,-1.955 4.839,-2.932 8.348,-2.932c3.608,0 6.314,0.977 8.115,2.932c1.802,1.955 2.606,4.786 2.411,8.495l-0.449,8.57l-1.394,-4.961c2.563,-4.911 6.194,-8.695 10.894,-11.351c4.7,-2.656 9.956,-3.984 15.77,-3.984c5.914,0 10.716,1.128 14.406,3.383c3.691,2.255 6.369,5.663 8.034,10.224c1.665,4.561 2.314,10.349 1.947,17.365l-1.789,34.129c-0.194,3.709 -1.321,6.565 -3.381,8.57c-2.06,2.005 -4.944,3.007 -8.652,3.007c-3.608,0 -6.337,-1.002 -8.187,-3.007c-1.849,-2.005 -2.677,-4.861 -2.483,-8.57l1.733,-33.077c0.268,-5.112 -0.466,-8.795 -2.202,-11.051c-1.736,-2.255 -4.509,-3.383 -8.317,-3.383c-4.811,-0 -8.724,1.503 -11.738,4.51c-3.014,3.007 -4.653,7.016 -4.915,12.028l-1.623,30.972c-0.404,7.718 -4.365,11.577 -11.883,11.577Z" fill="#f0f0f2" transform="translate(-36.250 0)"/>
    </g>
  </g>
</svg>
